<?xml version="1.0" encoding="UTF-8"?>
<!DOCTYPE svg PUBLIC "-//W3C//DTD SVG 1.1//EN" "http://www.w3.org/Graphics/SVG/1.1/DTD/svg11.dtd">
<svg xmlns="http://www.w3.org/2000/svg" version="1.1" width="354px" height="350px" style="shape-rendering:geometricPrecision; text-rendering:geometricPrecision; image-rendering:optimizeQuality; fill-rule:evenodd; clip-rule:evenodd" xmlns:xlink="http://www.w3.org/1999/xlink">
<g><path style="opacity:0.994" fill="#1b3b86" d="M 176.5,349.5 C 174.833,349.5 173.167,349.5 171.5,349.5C 122.557,320.355 73.2239,291.688 23.5,263.5C 22.1667,204.5 22.1667,145.5 23.5,86.5C 73.6463,57.6804 123.813,29.0138 174,0.5C 224.187,29.0138 274.354,57.6804 324.5,86.5C 325.833,145.5 325.833,204.5 324.5,263.5C 274.776,291.688 225.443,320.355 176.5,349.5 Z"/></g>
<g><path style="opacity:1" fill="#f9fafc" d="M 51.5,86.5 C 54.8984,86.1796 58.2317,86.513 61.5,87.5C 67.4159,97.6674 73.5826,107.667 80,117.5C 80.6667,129.833 80.6667,142.167 80,154.5C 75.0928,158.371 69.9261,161.871 64.5,165C 59.9132,165.799 55.4132,165.632 51,164.5C 50.1767,138.428 50.3434,112.428 51.5,86.5 Z"/></g>
<g><path style="opacity:1" fill="#f9fafc" d="M 67.5,86.5 C 88.3181,86.0124 108.985,86.5124 129.5,88C 123.5,97.6667 117.5,107.333 111.5,117C 102.5,117.667 93.5,117.667 84.5,117C 78.8748,108.251 73.3748,99.4173 68,90.5C 67.51,89.2068 67.3433,87.8734 67.5,86.5 Z"/></g>
<g><path style="opacity:1" fill="#fafbfc" d="M 135.5,86.5 C 138.777,86.2161 141.943,86.5495 145,87.5C 145.667,113.167 145.667,138.833 145,164.5C 140.587,165.632 136.087,165.799 131.5,165C 126.42,161.376 121.253,157.876 116,154.5C 115.333,142.167 115.333,129.833 116,117.5C 122.511,107.139 129.011,96.8052 135.5,86.5 Z"/></g>
<g><path style="opacity:1" fill="#fafafc" d="M 200.5,86.5 C 215.167,86.5 229.833,86.5 244.5,86.5C 244.702,88.9892 244.202,91.3225 243,93.5C 238.082,101 233.416,108.667 229,116.5C 222.916,117.642 216.749,117.809 210.5,117C 207.684,113.217 204.517,109.717 201,106.5C 200.5,99.8417 200.334,93.175 200.5,86.5 Z"/></g>
<g><path style="opacity:1" fill="#f9f9fb" d="M 257.5,86.5 C 271.837,86.3334 286.171,86.5001 300.5,87C 301.642,93.0844 301.809,99.2511 301,105.5C 297.869,109.633 294.369,113.466 290.5,117C 284.472,117.83 278.472,117.664 272.5,116.5C 267.333,108.167 262.167,99.8333 257,91.5C 256.36,89.735 256.527,88.0683 257.5,86.5 Z"/></g>
<g><path style="opacity:1" fill="#fbfbfd" d="M 247.5,99.5 C 249.792,99.2436 251.959,99.5769 254,100.5C 258.667,107.833 263.333,115.167 268,122.5C 268.667,133.5 268.667,144.5 268,155.5C 263.167,160.333 258.333,165.167 253.5,170C 251.5,170.667 249.5,170.667 247.5,170C 243,165.5 238.5,161 234,156.5C 233.333,145.167 233.333,133.833 234,122.5C 238.523,114.778 243.023,107.112 247.5,99.5 Z"/></g>
<g><path style="opacity:1" fill="#fcfcfd" d="M 83.5,156.5 C 93.5056,156.334 103.506,156.5 113.5,157C 119.998,161.417 126.665,165.584 133.5,169.5C 134.647,171.765 134.814,174.098 134,176.5C 127.922,181.122 121.755,185.622 115.5,190C 104.167,190.667 92.8333,190.667 81.5,190C 75.5,186 69.5,182 63.5,178C 61.3504,175.445 61.0171,172.612 62.5,169.5C 69.7316,165.392 76.7316,161.059 83.5,156.5 Z"/></g>
<g><path style="opacity:1" fill="#fcfcfd" d="M 248.5,178.5 C 250.199,178.34 251.866,178.506 253.5,179C 258.333,183.833 263.167,188.667 268,193.5C 268.667,204.167 268.667,214.833 268,225.5C 263.082,233 258.416,240.667 254,248.5C 252.267,250.602 250.267,250.935 248,249.5C 243.584,241.667 238.918,234 234,226.5C 233.333,215.5 233.333,204.5 234,193.5C 239.037,188.631 243.87,183.631 248.5,178.5 Z"/></g>
<g><path style="opacity:1" fill="#f9fafc" d="M 51.5,181.5 C 55.5138,181.334 59.5138,181.501 63.5,182C 69.0873,185.71 74.5873,189.543 80,193.5C 80.6667,206.167 80.6667,218.833 80,231.5C 73.8333,241.167 67.6667,250.833 61.5,260.5C 57.9553,261.791 54.4553,261.791 51,260.5C 50.1766,234.095 50.3432,207.761 51.5,181.5 Z"/></g>
<g><path style="opacity:1" fill="#fbfbfc" d="M 210.5,230.5 C 216.509,230.334 222.509,230.501 228.5,231C 233.208,238.917 238.041,246.75 243,254.5C 244.202,256.677 244.702,259.011 244.5,261.5C 229.833,261.5 215.167,261.5 200.5,261.5C 200.334,254.825 200.5,248.158 201,241.5C 204.75,238.256 207.917,234.589 210.5,230.5 Z"/></g>
<g><path style="opacity:1" fill="#fafafc" d="M 272.5,230.5 C 278.509,230.334 284.509,230.501 290.5,231C 294.35,234.549 297.85,238.383 301,242.5C 301.809,248.749 301.642,254.916 300.5,261C 285.925,261.823 271.425,261.656 257,260.5C 256.743,257.983 257.41,255.65 259,253.5C 264.028,246.107 268.528,238.44 272.5,230.5 Z"/></g>
<g><path style="opacity:0.879" fill="#1b3a86" d="M 302.5,299.5 C 321.001,298.5 329.501,307.167 328,325.5C 324.01,336.48 316.176,341.313 304.5,340C 288.634,334.431 284.134,323.931 291,308.5C 294.045,304.406 297.878,301.406 302.5,299.5 Z M 304.5,305.5 C 315.151,304.657 321.151,309.49 322.5,320C 322.316,323.553 321.15,326.719 319,329.5C 317.62,326.572 316.12,323.738 314.5,321C 318.143,315.142 316.809,311.142 310.5,309C 307.167,308.667 303.833,308.333 300.5,308C 302.066,307.392 303.4,306.558 304.5,305.5 Z M 299.5,330.5 C 292.061,323.642 291.895,316.642 299,309.5C 299.5,316.492 299.666,323.492 299.5,330.5 Z M 305.5,313.5 C 309.161,313.35 310.161,314.85 308.5,318C 307.552,318.483 306.552,318.649 305.5,318.5C 305.5,316.833 305.5,315.167 305.5,313.5 Z M 299.5,330.5 C 301.5,330.5 303.5,330.5 305.5,330.5C 305.296,320.369 307.296,320.036 311.5,329.5C 313.078,330.298 314.744,330.798 316.5,331C 310.614,335.599 304.947,335.432 299.5,330.5 Z"/></g>
</svg>
